<?xml version="1.0" standalone="no"?>
<!DOCTYPE svg PUBLIC "-//W3C//DTD SVG 20010904//EN"
 "http://www.w3.org/TR/2001/REC-SVG-20010904/DTD/svg10.dtd">
<svg version="1.0" xmlns="http://www.w3.org/2000/svg"
 width="240.000000pt" height="240.000000pt" viewBox="0 0 240.000000 240.000000"
 preserveAspectRatio="xMidYMid meet">

<g transform="translate(0.000000,240.000000) scale(0.100000,-0.100000)"
fill="#000000" stroke="none">
<path d="M1080 2395 c-8 -2 -49 -9 -90 -15 -470 -76 -861 -456 -966 -940 -26
-118 -26 -362 0 -480 102 -474 462 -833 938 -936 116 -26 361 -25 478 0 473
102 834 463 936 936 25 116 25 361 0 478 -87 405 -362 732 -740 879 -136 53
-241 73 -401 78 -77 2 -147 2 -155 0z m534 -546 c143 -81 136 -68 136 -231 l0
-138 -41 -30 c-60 -43 -185 -110 -206 -110 -24 0 -123 57 -123 71 0 5 19 37
41 71 23 33 38 59 33 56 -5 -3 -47 -27 -94 -55 -47 -28 -139 -82 -205 -120
l-120 -69 0 -94 0 -94 125 -73 c69 -40 131 -72 138 -73 8 0 52 23 99 50 47 28
94 50 105 50 22 0 159 -74 216 -117 l32 -24 0 -138 c0 -130 -1 -139 -22 -158
-40 -35 -199 -123 -224 -123 -14 0 -55 17 -92 38 -164 95 -162 91 -162 237 0
62 -4 96 -12 103 -13 10 -187 112 -326 190 -40 23 -70 36 -66 29 4 -6 20 -31
36 -54 15 -23 28 -45 28 -50 0 -11 -115 -73 -135 -73 -24 0 -224 119 -235 140
-6 10 -10 77 -10 148 0 120 1 130 23 149 39 37 195 123 222 123 14 0 66 -23
115 -51 l90 -51 135 78 135 78 0 95 c1 53 6 109 13 124 14 33 197 146 236 147
14 0 66 -23 115 -51z"/>
</g>
</svg>
