<?xml version="1.0" standalone="no"?>
<!DOCTYPE svg PUBLIC "-//W3C//DTD SVG 20010904//EN"
 "http://www.w3.org/TR/2001/REC-SVG-20010904/DTD/svg10.dtd">
<svg version="1.0" xmlns="http://www.w3.org/2000/svg"
 width="500.000000pt" height="500.000000pt" viewBox="0 0 500.000000 500.000000"
 preserveAspectRatio="xMidYMid meet">
<metadata>
Created by potrace 1.16, written by Peter Selinger 2001-2019
</metadata>
<g transform="translate(0.000000,500.000000) scale(0.100000,-0.100000)"
fill="#000000" stroke="none">
<path d="M2175 4984 c-375 -42 -731 -179 -1090 -417 -170 -113 -410 -334 -535
-492 -241 -305 -425 -685 -499 -1028 -67 -310 -67 -784 0 -1094 74 -344 266
-739 503 -1033 84 -104 284 -303 387 -383 196 -152 495 -319 720 -401 127 -46
315 -94 447 -112 59 -8 204 -18 322 -21 468 -12 806 62 1192 259 251 127 454
274 644 463 209 209 345 397 482 670 189 375 262 724 249 1186 -12 412 -72
659 -247 1014 -133 270 -279 476 -474 670 -343 341 -779 583 -1236 685 -216
48 -606 63 -865 34z m560 -1504 c136 -27 259 -57 272 -65 17 -12 23 -25 23
-53 0 -21 -36 -218 -80 -437 -44 -220 -125 -629 -180 -910 -89 -455 -103 -512
-124 -534 l-25 -24 -263 52 c-145 28 -273 56 -286 61 -50 21 -50 21 87 713 71
359 153 775 182 926 57 293 68 321 118 321 15 0 139 -22 276 -50z m-746 -70
c284 -145 281 -143 281 -181 0 -21 -111 -252 -342 -713 -189 -374 -381 -757
-428 -851 -64 -128 -92 -174 -113 -185 -27 -15 -33 -12 -274 110 -135 68 -252
131 -260 138 -7 7 -13 27 -13 44 0 33 841 1713 868 1736 9 6 27 12 40 12 13 0
122 -50 241 -110z m1719 94 c53 -15 52 14 52 -1012 0 -945 0 -949 -21 -976
l-20 -26 -285 0 c-271 0 -285 1 -304 20 -20 20 -20 33 -20 989 l0 970 26 20
c25 20 39 21 288 21 143 0 271 -3 284 -6z"/>
</g>
</svg>
