<?xml version="1.0" standalone="no"?>
<!DOCTYPE svg PUBLIC "-//W3C//DTD SVG 20010904//EN"
 "http://www.w3.org/TR/2001/REC-SVG-20010904/DTD/svg10.dtd">
<svg version="1.0" xmlns="http://www.w3.org/2000/svg"
 width="1190.000000pt" height="1182.000000pt" viewBox="0 0 1190.000000 1182.000000"
 preserveAspectRatio="xMidYMid meet">

<g transform="translate(0.000000,1182.000000) scale(0.100000,-0.100000)"
fill="#000000" stroke="none">
<path d="M675 11809 c-344 -57 -614 -330 -665 -674 -7 -48 -10 -1683 -8 -5270
l3 -5200 22 -70 c47 -152 109 -258 210 -358 107 -107 219 -171 378 -215 56
-16 441 -17 5335 -17 5092 0 5277 1 5340 18 154 44 270 110 373 214 107 107
171 219 215 378 16 56 17 438 17 5295 0 5053 -1 5237 -18 5300 -44 154 -110
270 -214 373 -104 105 -210 166 -373 215 -51 16 -425 17 -5310 18 -2890 1
-5277 -2 -5305 -7z m5267 -3439 c51 -11 116 -25 143 -31 28 -7 70 -15 95 -19
25 -4 81 -16 125 -25 113 -24 271 -55 330 -64 28 -4 63 -13 78 -19 16 -7 40
-12 55 -12 15 0 57 -7 95 -15 58 -13 167 -36 232 -50 29 -6 92 -65 104 -98 6
-16 11 -43 11 -61 0 -29 -33 -216 -70 -391 -5 -27 -19 -99 -30 -160 -12 -60
-27 -139 -35 -175 -7 -36 -18 -90 -24 -120 -6 -30 -16 -77 -22 -105 -5 -27
-14 -72 -19 -100 -4 -27 -14 -72 -20 -100 -6 -27 -16 -72 -20 -100 -5 -27 -15
-84 -23 -125 -8 -41 -27 -136 -41 -210 -14 -74 -31 -155 -37 -180 -7 -25 -15
-67 -19 -95 -4 -27 -15 -84 -24 -125 -9 -41 -23 -113 -31 -160 -9 -47 -20 -98
-25 -114 -6 -16 -10 -44 -10 -62 0 -18 -5 -45 -11 -61 -6 -15 -15 -53 -19 -83
-5 -30 -18 -102 -30 -160 -12 -58 -26 -131 -31 -163 -5 -32 -13 -67 -19 -77
-5 -10 -10 -33 -10 -50 0 -18 -6 -55 -14 -83 -8 -29 -23 -108 -35 -177 -12
-69 -26 -139 -31 -156 -6 -17 -10 -42 -10 -57 0 -14 -5 -38 -11 -54 -6 -15
-15 -53 -19 -83 -4 -30 -15 -91 -24 -135 -9 -44 -21 -105 -27 -135 -6 -30 -15
-75 -21 -100 -6 -25 -14 -67 -18 -95 -8 -51 -28 -152 -55 -280 -8 -38 -15 -78
-15 -88 0 -35 -49 -122 -83 -144 -46 -31 -101 -30 -282 8 -83 17 -172 35 -200
40 -27 5 -81 15 -120 24 -38 8 -108 22 -155 30 -47 8 -92 18 -100 21 -8 3 -40
9 -70 14 -30 4 -75 12 -100 18 -25 6 -81 18 -125 27 -159 32 -210 45 -221 60
-6 8 -16 15 -22 15 -6 0 -23 26 -37 57 -25 52 -26 61 -17 107 20 91 41 199 62
311 11 61 27 139 34 175 8 36 19 90 25 120 43 225 53 273 66 335 8 39 17 86
21 105 3 19 12 64 19 100 37 184 57 291 65 342 4 31 11 62 16 70 5 7 11 36 15
63 6 52 51 285 70 365 6 25 14 68 18 95 5 28 13 73 20 100 10 44 56 278 68
345 2 14 10 54 18 90 8 36 19 90 25 120 6 30 25 123 41 205 17 83 34 173 39
200 7 44 17 96 60 320 6 33 16 74 21 91 5 17 9 39 9 49 0 10 6 46 14 79 8 34
24 113 36 176 11 63 25 133 30 155 9 39 14 62 45 235 29 158 46 190 120 226
28 13 53 24 57 24 3 0 48 -9 100 -20z m-1714 -34 c15 -8 63 -32 107 -53 44
-21 82 -41 83 -45 2 -5 11 -8 21 -8 9 0 21 -4 27 -9 5 -5 191 -101 414 -214
223 -112 419 -213 437 -224 58 -35 78 -70 78 -138 0 -57 -6 -72 -113 -285 -63
-124 -118 -232 -122 -240 -5 -8 -39 -78 -77 -155 -70 -141 -136 -273 -155
-310 -50 -92 -238 -474 -238 -482 0 -6 -7 -16 -15 -23 -8 -7 -15 -21 -15 -30
0 -10 -3 -20 -7 -22 -10 -4 -83 -150 -83 -165 0 -6 -4 -13 -8 -15 -10 -4 -82
-151 -82 -167 0 -6 -3 -11 -8 -11 -4 0 -27 -42 -52 -92 -24 -51 -48 -94 -52
-96 -4 -2 -8 -9 -8 -15 0 -15 -103 -221 -112 -225 -5 -2 -8 -9 -8 -15 0 -15
-73 -161 -82 -165 -5 -2 -8 -8 -8 -13 0 -5 -20 -49 -44 -97 -23 -48 -66 -132
-93 -187 -27 -55 -67 -134 -87 -175 -21 -41 -41 -82 -45 -90 -4 -8 -12 -24
-18 -35 -23 -48 -86 -171 -93 -185 -4 -8 -97 -192 -205 -407 -120 -238 -209
-404 -227 -422 -40 -39 -99 -53 -158 -39 -25 6 -52 17 -61 24 -8 8 -22 14 -30
14 -8 0 -19 4 -25 9 -5 5 -43 26 -84 46 -41 20 -82 41 -90 45 -8 5 -145 74
-305 155 -159 81 -297 150 -305 155 -8 4 -46 24 -85 43 -160 80 -176 90 -197
126 -39 62 -31 118 32 246 30 61 58 112 63 113 4 2 7 8 7 13 0 8 127 271 150
309 5 8 33 65 63 125 30 61 181 362 336 670 155 308 281 566 281 572 0 6 4 13
8 15 5 2 56 98 113 213 57 116 107 212 111 213 5 2 8 8 8 13 0 5 43 96 96 202
53 105 110 219 126 252 16 33 52 105 80 160 27 55 75 150 105 210 30 61 58
117 63 125 4 8 90 179 191 379 162 322 188 367 223 392 31 24 49 29 93 29 30
0 67 -6 81 -14z m4608 -31 c42 -20 75 -59 91 -103 10 -30 13 -466 13 -2299 0
-1497 -3 -2264 -10 -2268 -5 -3 -10 -14 -10 -24 0 -9 -19 -35 -42 -56 l-41
-40 -626 -3 c-344 -2 -649 -1 -677 3 -37 4 -59 14 -87 39 -72 64 -67 -117 -67
2367 0 1980 2 2241 15 2280 19 52 38 75 85 100 33 17 72 18 681 19 550 0 650
-2 675 -15z"/>
</g>
</svg>
